<svg width="362" height="60" viewBox="0 0 362 60" fill="none" xmlns="http://www.w3.org/2000/svg">
<path d="M43.7306 1.4044C43.9201 0.26374 45.4577 -0.429953 46.4088 0.299497L54.515 8.20545C55.3053 9.25672 54.9441 9.96114 54.0967 10.755C51.6902 13.0112 48.8654 14.9958 46.4446 17.2628C45.758 17.7133 44.8033 17.6382 44.2241 17.059C44.1025 16.9374 43.727 16.351 43.727 16.2115V12.5106L43.4088 12.3676H17.0234C9.43213 11.9743 4.71931 21.9756 14.17 23.5597C26.2488 23.7992 38.3527 23.5954 50.4387 23.6634C56.1706 24.0531 61.1266 26.9817 62.2887 32.9138C64.2017 42.6613 54.9656 49.8378 46.0012 50.0452H17.1665L17.0735 53.5136C16.9662 54.7222 15.5931 55.4624 14.5419 54.8402C13.8017 54.404 12.1962 52.6841 11.4703 51.9868C9.75752 50.3419 8.11268 48.6149 6.37845 46.9879C5.53458 45.858 6.0173 45.1679 6.88978 44.3454C9.30698 42.0677 12.0925 40.0045 14.5669 37.7696C15.3571 37.3549 16.3333 37.5372 16.8125 38.3132C17.2845 39.0748 17.0198 40.4693 17.0699 41.3883C17.0914 41.7924 17.238 42.2036 17.1665 42.6327H45.9976C53.9072 42.1213 57.0788 32.6814 48.1252 31.0651C36.9331 30.7469 25.5086 31.4835 14.3416 31.0651C8.20565 30.8363 1.3009 28.9233 0.163819 21.9184C-1.38447 12.364 8.3308 5.01589 17.1164 4.87287H43.7306C43.8522 3.82875 43.5661 2.40561 43.7306 1.4044Z" fill="white"/>
<path d="M119.028 16.4332C121.413 18.8182 122.604 22.1437 122.604 26.4167V45.0105H114.595V27.5037C114.595 25.0257 113.965 23.127 112.707 21.8111C111.448 20.4953 109.732 19.8373 107.557 19.8373C105.383 19.8373 103.656 20.4953 102.38 21.8111C101.103 23.127 100.463 25.0257 100.463 27.5037V45.0105H92.4536V27.5037C92.4536 25.0257 91.8242 23.127 90.5656 21.8111C89.3069 20.4953 87.5906 19.8373 85.4165 19.8373C83.2425 19.8373 81.4582 20.4953 80.1817 21.8111C78.9051 23.127 78.2651 25.0257 78.2651 27.5037V45.0105H70.2554V13.3152H78.2651V17.1484C79.2949 15.8146 80.6179 14.7634 82.2413 14.0017C83.8611 13.2401 85.6454 12.8575 87.5906 12.8575C90.0686 12.8575 92.2819 13.3831 94.2271 14.4308C96.1723 15.4785 97.6777 16.9767 98.7469 18.9219C99.7767 17.0912 101.271 15.6251 103.238 14.5166C105.201 13.4117 107.329 12.8575 109.617 12.8575C113.508 12.8575 116.643 14.0482 119.028 16.4332Z" fill="white"/>
<path d="M130.07 20.5239C131.347 18.0459 133.081 16.14 135.277 14.8027C137.469 13.4689 139.918 12.8003 142.628 12.8003C144.992 12.8003 147.062 13.2758 148.836 14.2306C150.609 15.1853 152.029 16.3867 153.098 17.8349V13.3152H161.165V45.0105H153.098V40.3763C152.068 41.8639 150.649 43.0939 148.836 44.0665C147.023 45.0391 144.935 45.5254 142.571 45.5254C139.9 45.5254 137.469 44.8389 135.277 43.4658C133.081 42.0927 131.347 40.1582 130.07 37.6588C128.79 35.1594 128.154 32.2916 128.154 29.0484C128.154 25.8052 128.794 23.0018 130.07 20.5239ZM151.954 24.1568C151.192 22.7658 150.162 21.6967 148.864 20.9529C147.566 20.2092 146.175 19.8373 144.688 19.8373C143.2 19.8373 141.827 20.202 140.569 20.9243C139.31 21.6502 138.287 22.7086 137.508 24.0996C136.725 25.4941 136.335 27.1425 136.335 29.0484C136.335 30.9543 136.725 32.6242 137.508 34.0544C138.291 35.4847 139.317 36.5825 140.597 37.3441C141.874 38.1093 143.236 38.4884 144.688 38.4884C146.14 38.4884 147.566 38.1165 148.864 37.3727C150.159 36.629 151.189 35.5634 151.954 34.1689C152.715 32.7779 153.098 31.108 153.098 29.1628C153.098 27.2176 152.715 25.5513 151.954 24.1568Z" fill="white"/>
<path d="M181.046 14.2878C182.705 13.3331 184.6 12.8575 186.739 12.8575V21.2676H184.622C182.104 21.2676 180.206 21.8612 178.929 23.0412C177.653 24.2248 177.013 26.2844 177.013 29.2201V45.0105H169.003V13.3152H177.013V18.2354C178.042 16.5584 179.387 15.2425 181.046 14.2878Z" fill="white"/>
<path d="M201.442 19.8945V35.2273C201.442 36.2964 201.7 37.0688 202.214 37.5444C202.729 38.0199 203.598 38.2595 204.818 38.2595H208.536V45.0105H203.502C196.751 45.0105 193.375 41.7316 193.375 35.1701V19.8945H189.599V13.3152H193.375V5.47716H201.442V13.3152H208.536V19.8945H201.442Z" fill="white"/>
<path d="M234.911 45.0105L226.1 29.4489H222.324V45.0105H214.315V5.07668H229.304C232.394 5.07668 235.025 5.62019 237.199 6.70721C239.373 7.79424 241.004 9.26386 242.091 11.1125C243.178 12.9612 243.722 15.0315 243.722 17.32C243.722 19.9517 242.96 22.326 241.433 24.4429C239.906 26.5597 237.639 28.0186 234.625 28.8196L244.179 45.0105H234.911ZM222.324 23.4417H229.018C231.192 23.4417 232.812 22.9196 233.881 21.8683C234.95 20.8206 235.483 19.3617 235.483 17.4916C235.483 15.6215 234.947 14.2413 233.881 13.2294C232.812 12.2174 231.192 11.7132 229.018 11.7132H222.324V23.4417Z" fill="white"/>
<path d="M280.223 31.5657H257.052C257.241 33.8542 258.042 35.6492 259.455 36.9436C260.864 38.2416 262.601 38.8888 264.661 38.8888C267.636 38.8888 269.753 37.6123 271.012 35.0557H279.651C278.735 38.1093 276.98 40.6159 274.387 42.579C271.795 44.5457 268.609 45.5254 264.833 45.5254C261.783 45.5254 259.044 44.8496 256.623 43.4944C254.202 42.1392 252.314 40.2262 250.959 37.7446C249.604 35.2666 248.928 32.406 248.928 29.1628C248.928 25.9196 249.597 23.0054 250.93 20.5239C252.264 18.0459 254.134 16.14 256.537 14.8027C258.94 13.4689 261.704 12.8003 264.833 12.8003C267.962 12.8003 270.543 13.451 272.928 14.7455C275.313 16.0435 277.162 17.8814 278.478 20.2664C279.794 22.6514 280.452 25.3869 280.452 28.4763C280.452 29.6205 280.376 30.6503 280.223 31.5657ZM272.156 26.1878C272.117 24.1282 271.373 22.4798 269.925 21.239C268.473 20.0018 266.699 19.3796 264.604 19.3796C262.619 19.3796 260.949 19.9803 259.598 21.1818C258.243 22.3832 257.413 24.0531 257.109 26.1878H272.156Z" fill="white"/>
<path d="M295.613 19.8945V35.2273C295.613 36.2964 295.87 37.0688 296.385 37.5444C296.9 38.0199 297.769 38.2595 298.988 38.2595H302.707V45.0105H297.672C290.921 45.0105 287.546 41.7316 287.546 35.1701V19.8945H283.77V13.3152H287.546V5.47716H295.613V13.3152H302.707V19.8945H295.613Z" fill="white"/>
<path d="M320.528 14.2878C322.188 13.3331 324.083 12.8575 326.221 12.8575V21.2676H324.104C321.587 21.2676 319.688 21.8612 318.412 23.0412C317.135 24.2248 316.495 26.2844 316.495 29.2201V45.0105H308.485V13.3152H316.495V18.2354C317.525 16.5584 318.869 15.2425 320.528 14.2878Z" fill="white"/>
<path d="M361.921 13.3152L342.298 60H333.773L340.638 44.2095L327.937 13.3152H336.92L345.101 35.4561L353.397 13.3152H361.921Z" fill="white"/>
</svg>
